<?xml version="1.0" encoding="utf-8"?>
<!-- Generator: Adobe Illustrator 16.0.0, SVG Export Plug-In . SVG Version: 6.00 Build 0)  -->
<!DOCTYPE svg PUBLIC "-//W3C//DTD SVG 1.1//EN" "http://www.w3.org/Graphics/SVG/1.1/DTD/svg11.dtd">
<svg version="1.1" id="Capa_1" xmlns="http://www.w3.org/2000/svg" xmlns:xlink="http://www.w3.org/1999/xlink" x="0px" y="0px"
	 width="24px" height="24px" viewBox="0 0 24 24" enable-background="new 0 0 24 24" xml:space="preserve">
<circle fill="#FFFFFF" stroke="#FFFFFF" stroke-miterlimit="10" cx="12.001" cy="10.25" r="9"/>
<g id="Capa_1_1_" display="none">
	<circle display="inline" fill="#9A7D22" cx="12" cy="10.4" r="10"/>
</g>
<g>
	<path d="M19.262,6.056c-0.008-0.073-0.053-0.137-0.117-0.171c-0.063-0.034-0.139-0.034-0.203,0l-1.488,0.736l-0.02-0.557
		c-0.004-0.119-0.104-0.213-0.223-0.21c-0.031,0.001-0.063,0.009-0.092,0.023l-1.488,0.736l-0.02-0.557
		c-0.004-0.119-0.104-0.213-0.223-0.21c-0.031,0-0.064,0.009-0.092,0.023l-1.313,0.653l-0.143-2.29
		c-0.004-0.191-0.156-0.343-0.348-0.349h-1.131c-0.189,0.004-0.342,0.156-0.348,0.346l-0.333,5.475
		c0.134-0.039,0.283-0.063,0.44-0.08l0.321-5.297h0.982l0.158,2.559c0.006,0.119,0.107,0.211,0.227,0.204
		c0.031-0.001,0.061-0.009,0.088-0.023l1.305-0.647l0.02,0.559c0.004,0.12,0.104,0.213,0.223,0.21
		c0.031-0.001,0.063-0.01,0.092-0.023l1.49-0.736l0.018,0.557c0.004,0.119,0.104,0.213,0.223,0.21
		c0.031-0.001,0.063-0.009,0.092-0.024l1.504-0.75c0.064,0.836,0.244,2.644,0.33,4.341l-3.197-0.002v0.432h3.27
		c0.102-0.002,0.197-0.047,0.262-0.124c0.063-0.073,0.092-0.166,0.086-0.262C19.506,8.693,19.262,6.088,19.262,6.056z"/>
	<path d="M14.924,8.092h-0.857c-0.121,0-0.217,0.097-0.217,0.218c0,0.119,0.098,0.217,0.217,0.217l0,0h0.861
		c0.119,0,0.217-0.098,0.217-0.217c0-0.121-0.098-0.218-0.217-0.218H14.924z"/>
	<path d="M16.619,8.092h-0.861c-0.119,0-0.217,0.097-0.217,0.218c0,0.119,0.098,0.217,0.217,0.217l0,0h0.861
		c0.119,0,0.217-0.098,0.217-0.217C16.836,8.188,16.738,8.092,16.619,8.092z"/>
	<path d="M18.314,8.092h-0.861c-0.119,0-0.217,0.097-0.217,0.218c0,0.119,0.098,0.217,0.217,0.217l0,0h0.861
		c0.119,0,0.217-0.098,0.217-0.217C18.531,8.188,18.434,8.092,18.314,8.092z"/>
</g>
<g id="Capa_3">
	<path d="M11.997,0.001L11.997,0.001c-5.66-0.085-10.315,4.434-10.4,10.093c0,0.044,0,0.089,0,0.133
		c0,3.126,1.311,5.527,3.563,7.753c2.972,2.929,5.813,5.599,5.813,5.599c0.311,0.3,0.736,0.45,1.167,0.412v-0.412l0,0V24
		c0.367-0.079,0.715-0.232,1.021-0.455c0,0,2.741-2.74,5.696-5.652c2.254-2.221,3.547-4.533,3.547-7.677
		C22.376,4.547,17.759-0.027,12.09,0C12.06,0,12.028,0,11.997,0.001z M11.997,19c-4.946,0.003-8.957-4.004-8.959-8.949
		c-0.003-4.945,4.003-8.956,8.948-8.959c4.944-0.002,8.956,4.003,8.958,8.949c0,0.003,0,0.007,0,0.011
		C20.939,14.995,16.936,19,11.991,19H11.997z"/>
</g>
<g>
	<path d="M15.854,8.766c-0.086-0.047-0.191-0.047-0.278,0l-2.048,1.012l-0.026-0.766c-0.005-0.164-0.142-0.293-0.306-0.289
		c-0.045,0.001-0.088,0.012-0.127,0.032l-2.047,1.012l-0.027-0.766c-0.004-0.164-0.141-0.293-0.305-0.289
		c-0.044,0.001-0.088,0.012-0.127,0.032L8.759,9.642L8.563,6.493c-0.007-0.262-0.217-0.472-0.479-0.48H6.529
		C6.268,6.019,6.058,6.228,6.051,6.489L5.5,15.538c-0.007,0.13,0.035,0.257,0.118,0.356c0.089,0.106,0.221,0.168,0.361,0.17H16.02
		c0.14-0.002,0.271-0.063,0.36-0.17c0.085-0.101,0.127-0.229,0.118-0.36c-0.148-2.907-0.484-6.489-0.484-6.533
		C16.004,8.901,15.943,8.813,15.854,8.766z M6.104,15.467L6.64,6.624h1.349l0.219,3.518c0.008,0.163,0.147,0.29,0.311,0.281
		c0.043-0.002,0.084-0.013,0.122-0.032l1.794-0.89l0.027,0.769c0.004,0.164,0.141,0.293,0.304,0.289
		c0.044-0.001,0.088-0.013,0.127-0.032l2.048-1.012l0.025,0.766c0.006,0.164,0.141,0.293,0.307,0.289
		c0.043-0.001,0.086-0.012,0.125-0.033l2.067-1.032c0.089,1.15,0.337,3.636,0.455,5.97L6.104,15.467z"/>
	<path d="M10.05,11.801H8.87c-0.165,0-0.298,0.133-0.298,0.298s0.134,0.299,0.298,0.299l0,0h1.184c0.165,0,0.298-0.134,0.298-0.299
		s-0.134-0.298-0.298-0.298H10.05z"/>
	<path d="M12.382,11.801h-1.185c-0.165,0-0.299,0.133-0.299,0.298s0.134,0.299,0.299,0.299l0,0h1.185
		c0.164,0,0.298-0.134,0.298-0.299S12.546,11.801,12.382,11.801z"/>
	<path d="M14.711,11.801h-1.184c-0.164,0-0.299,0.133-0.299,0.298s0.135,0.299,0.299,0.299l0,0h1.184
		c0.166,0,0.299-0.134,0.299-0.299S14.877,11.801,14.711,11.801z"/>
</g>
</svg>
