<?xml version="1.0" encoding="utf-8"?>
<!-- Generator: Adobe Illustrator 16.0.0, SVG Export Plug-In . SVG Version: 6.00 Build 0)  -->
<!DOCTYPE svg PUBLIC "-//W3C//DTD SVG 1.1//EN" "http://www.w3.org/Graphics/SVG/1.1/DTD/svg11.dtd">
<svg version="1.1" id="Capa_1" xmlns="http://www.w3.org/2000/svg" xmlns:xlink="http://www.w3.org/1999/xlink" x="0px" y="0px"
	 width="24px" height="24px" viewBox="0 0 24 24" enable-background="new 0 0 24 24" xml:space="preserve">
<circle fill="#FFFFFF" stroke="#FFFFFF" stroke-miterlimit="10" cx="12.001" cy="10.25" r="9"/>
<g id="Capa_1_1_" display="none">
	<circle display="inline" fill="#9A7D22" cx="12" cy="10.4" r="10"/>
</g>
<g id="Capa_3">
	<path fill="#F39F7E" d="M11.998,0.001L11.998,0.001C6.338-0.084,1.682,4.435,1.597,10.094c0,0.044,0,0.089,0,0.133
		c0,3.126,1.311,5.527,3.563,7.753c2.972,2.929,5.813,5.599,5.813,5.599c0.311,0.3,0.737,0.45,1.167,0.412v-0.412l0,0V24
		c0.368-0.079,0.715-0.232,1.021-0.455c0,0,2.741-2.74,5.696-5.652c2.254-2.221,3.547-4.533,3.547-7.677
		C22.377,4.547,17.76-0.027,12.091,0C12.06,0,12.029,0,11.998,0.001z M11.998,19c-4.946,0.003-8.957-4.004-8.959-8.949
		c-0.003-4.945,4.003-8.956,8.948-8.959c4.945-0.002,8.957,4.003,8.958,8.949c0,0.003,0,0.007,0,0.011
		C20.941,14.995,16.936,19,11.992,19H11.998z"/>
</g>
<path fill="#F39F7E" d="M17.201,12.736L17.201,12.736c-0.144,0-0.26,0.115-0.26,0.258c0,0.002,0,0.002,0,0.004
	c0.046,0.146,0.202,0.229,0.349,0.184c0.088-0.027,0.156-0.098,0.184-0.184C17.465,12.852,17.347,12.738,17.201,12.736z"/>
<path fill="#F39F7E" d="M17.066,13.541c-0.136-0.051-0.285,0.02-0.336,0.154c0,0,0,0.002-0.001,0.002
	c-0.161,0.432-0.365,0.846-0.609,1.236c-2.322-1.744-6.939-2.947-9.018-3.424C6.745,10.255,6.567,8.12,6.534,7.697
	C7.559,5.746,9.3,4.57,11.324,4.459c1.958-0.104,3.818,0.874,4.843,2.547c0.086,0.118,0.251,0.145,0.37,0.06
	c0.106-0.078,0.14-0.222,0.078-0.338c-1.125-1.838-3.171-2.909-5.322-2.787C9.063,4.063,7.141,5.37,6.029,7.53
	C6.007,7.572,5.998,7.619,6.001,7.667c0,0.111,0.198,2.739,0.641,4.149c0.031,0.088,0.104,0.155,0.195,0.178
	c1.58,0.357,6.916,1.672,9.196,3.533c0.047,0.039,0.105,0.061,0.167,0.063h0.037c0.071-0.012,0.138-0.053,0.181-0.111l0.098-0.146
	c0.293-0.455,0.534-0.943,0.719-1.455c0.048-0.135-0.023-0.285-0.16-0.334C17.072,13.543,17.07,13.541,17.066,13.541z"/>
<path fill="#F39F7E" d="M15.495,15.859c-2.355-1.498-6.292-2.787-8.221-3.225c-0.145-0.008-0.268,0.102-0.276,0.246
	c-0.006,0.109,0.056,0.213,0.157,0.256c1.895,0.443,5.757,1.691,8.059,3.158c0.133,0.063,0.29,0.004,0.353-0.127
	c0.052-0.111,0.021-0.244-0.074-0.32L15.495,15.859z"/>
<path fill="#F39F7E" d="M9.741,5.487C8.772,5.864,7.944,6.532,7.37,7.399c-0.081,0.12-0.048,0.283,0.072,0.363
	c0.001,0,0.002,0.001,0.002,0.001c0.044,0.027,0.094,0.042,0.145,0.042C7.677,7.804,7.759,7.76,7.81,7.688
	c0.513-0.775,1.252-1.373,2.118-1.711c0.13-0.057,0.196-0.204,0.153-0.34c-0.052-0.135-0.203-0.203-0.338-0.151
	C9.742,5.487,9.741,5.487,9.741,5.487z"/>
<path fill="#F39F7E" d="M17.284,7.7c-0.037-0.091-0.122-0.152-0.221-0.159L12.81,7.215c-0.111-0.031-0.226-0.048-0.34-0.05
	c-0.729,0.001-1.32,0.592-1.322,1.32c0.029,0.24,0.09,0.474,0.181,0.697c0.456,0.919,1.258,1.621,2.23,1.951l3.968,1.335
	c0.027,0.004,0.055,0.004,0.083,0c0.125-0.006,0.231-0.096,0.26-0.219c0.087-0.484,0.131-0.977,0.131-1.471
	C17.958,9.716,17.714,8.672,17.284,7.7z M12.47,7.7c0.438,0,0.794,0.356,0.794,0.794c0,0.439-0.356,0.794-0.794,0.794
	c-0.439,0-0.794-0.355-0.794-0.794c-0.003-0.44,0.351-0.799,0.791-0.802c0.002,0,0.002,0,0.004,0V7.7z M17.407,11.88l-3.676-1.238
	c-0.502-0.169-0.957-0.456-1.326-0.836h0.064c0.725-0.003,1.313-0.595,1.309-1.321c-0.002-0.241-0.068-0.477-0.194-0.683
	l3.266,0.251c0.369,0.871,0.578,1.802,0.619,2.748c0.003,0.359-0.018,0.719-0.062,1.075V11.88z"/>
<path fill="#F39F7E" d="M12.405,8.717c0.131-0.006,0.23-0.117,0.225-0.248c-0.006-0.13-0.117-0.231-0.248-0.225
	c-0.13,0.006-0.231,0.117-0.225,0.248C12.163,8.622,12.274,8.723,12.405,8.717C12.405,8.717,12.405,8.717,12.405,8.717z"/>
</svg>
