<?xml version="1.0" encoding="utf-8"?>
<!-- Generator: Adobe Illustrator 16.0.0, SVG Export Plug-In . SVG Version: 6.00 Build 0)  -->
<!DOCTYPE svg PUBLIC "-//W3C//DTD SVG 1.1//EN" "http://www.w3.org/Graphics/SVG/1.1/DTD/svg11.dtd">
<svg version="1.1" id="Capa_1" xmlns="http://www.w3.org/2000/svg" xmlns:xlink="http://www.w3.org/1999/xlink" x="0px" y="0px"
	 width="24px" height="24px" viewBox="0 0 24 24" enable-background="new 0 0 24 24" xml:space="preserve">
<circle fill="#FFFFFF" stroke="#FFFFFF" stroke-miterlimit="10" cx="12.001" cy="10.25" r="9"/>
<g id="Capa_1_1_" display="none">
	<circle display="inline" fill="#9A7D22" cx="12" cy="10.4" r="10"/>
</g>
<g id="Capa_3">
	<path fill="#B5343A" d="M11.998,0.001L11.998,0.001C6.338-0.084,1.682,4.435,1.597,10.094c0,0.044,0,0.089,0,0.133
		c0,3.126,1.311,5.527,3.563,7.753c2.972,2.929,5.813,5.599,5.813,5.599c0.311,0.3,0.737,0.45,1.167,0.412v-0.412l0,0V24
		c0.368-0.079,0.715-0.232,1.021-0.455c0,0,2.741-2.74,5.696-5.652c2.254-2.221,3.547-4.533,3.547-7.677
		C22.377,4.547,17.76-0.027,12.091,0C12.06,0,12.029,0,11.998,0.001z M11.998,19c-4.946,0.003-8.957-4.004-8.959-8.949
		c-0.003-4.945,4.003-8.956,8.948-8.959c4.945-0.002,8.957,4.003,8.958,8.949c0,0.003,0,0.007,0,0.011
		C20.941,14.995,16.936,19,11.992,19H11.998z"/>
</g>
<path fill="#B5343A" d="M16.048,5.413c-1.128-1.885-2.073-3.446-2.104-3.469c-0.035-0.028-0.065,0.052-0.096,0.257
	c-0.103,0.713-0.375,1.32-0.73,1.629c-0.555,0.479-1.275,0.636-2.973,0.647c-1.14,0.008-1.775,0.066-2.177,0.198
	C7.133,4.951,6.576,5.634,6.393,6.602C6.325,6.965,6.32,6.975,6.245,6.917C6.198,6.881,6,6.994,5.901,7.114
	c-0.016,0.019,4.057,6.87,6.495,10.946c0.129-0.09,0.258-0.168,0.388-0.236c-0.099-0.164-0.196-0.328-0.298-0.498l-1.94-3.243
	l0.043-0.354c0.08-0.643,0.358-1.254,0.718-1.58c0.542-0.49,1.33-0.659,3.089-0.662c1.287-0.002,1.881-0.085,2.383-0.333
	c0.385-0.189,0.396-0.197,0.74-0.652c0.388-0.509,0.481-0.744,0.545-1.348L18.1,8.841L16.048,5.413z M7.713,6.933
	c-0.192,0.252-0.446,0.92-0.459,1.202C7.249,8.28,7.219,8.357,7.181,8.329c-0.01-0.008-0.179-0.281-0.374-0.605
	C6.406,7.054,6.389,6.97,6.539,6.402c0.094-0.356,0.423-1.045,0.504-1.056c0.021-0.003,0.221,0.299,0.446,0.67l0.408,0.675
	L7.713,6.933z M9.064,6.054l0.181-0.051L8.866,5.367c-0.208-0.35-0.371-0.661-0.36-0.69c0.017-0.049,1.24-0.122,1.542-0.09
	c0.126,0.013,0.167,0.063,0.516,0.644c0.208,0.346,0.377,0.645,0.375,0.664s-0.275,0.038-0.606,0.043
	c-0.611,0.009-1.06,0.054-1.048,0.104c0.005,0.022,0.504,0.866,0.734,1.243c0.063,0.104,0.063,0.104-0.221,0.181
	C9.641,7.507,9.432,7.582,9.332,7.631c-0.1,0.049-0.258,0.143-0.352,0.21C8.886,7.908,8.786,7.979,8.758,8
	C8.725,8.023,8.579,7.82,8.326,7.395C8.116,7.042,7.94,6.725,7.935,6.69C7.912,6.544,8.5,6.213,9.064,6.054z M9.341,9.688
	c-0.215,0.349-0.353,0.71-0.421,1.109c-0.029,0.169-0.062,0.309-0.072,0.311c-0.01,0.001-0.198-0.299-0.416-0.667L8.035,9.772
	l0.058-0.347C8.189,8.853,8.59,8.017,8.719,8.116c0.028,0.021,0.219,0.321,0.423,0.665l0.372,0.626L9.341,9.688z M10.976,12.408
	c-0.205,0.268-0.389,0.724-0.458,1.13c-0.023,0.138-0.052,0.253-0.063,0.255c-0.011,0.001-0.18-0.268-0.376-0.594
	c-0.196-0.329-0.365-0.637-0.376-0.682c-0.03-0.13,0.062-0.554,0.2-0.927c0.141-0.382,0.439-0.813,0.495-0.718
	c0.019,0.031,0.199,0.334,0.401,0.673l0.366,0.613L10.976,12.408z M11.414,10.22c-0.312,0.085-0.769,0.312-0.858,0.426
	c-0.148,0.189-0.194,0.15-0.605-0.542c-0.219-0.366-0.399-0.672-0.4-0.68C9.55,9.416,9.64,9.338,9.752,9.252
	c0.251-0.195,0.537-0.333,0.853-0.411c0.133-0.033,0.25-0.071,0.26-0.086c0.011-0.014-0.153-0.31-0.364-0.659
	c-0.21-0.349-0.385-0.647-0.388-0.662c-0.012-0.051,0.617-0.121,1.119-0.125c0.271-0.002,0.502-0.017,0.514-0.032
	c0.012-0.016-0.148-0.31-0.355-0.655c-0.207-0.345-0.375-0.643-0.373-0.662s0.266-0.038,0.587-0.041
	c0.583-0.004,1.079-0.054,1.067-0.105C12.668,5.8,12.496,5.507,12.29,5.163c-0.207-0.343-0.377-0.633-0.381-0.645
	c-0.003-0.011,0.138-0.061,0.315-0.112c0.413-0.117,0.527-0.172,0.812-0.387l0.233-0.177l0.373,0.625
	c0.203,0.344,0.396,0.645,0.426,0.668c0.045,0.035,0.09-0.012,0.229-0.242c0.193-0.318,0.32-0.664,0.4-1.093
	c0.028-0.16,0.069-0.278,0.088-0.264c0.112,0.087,0.758,1.24,0.769,1.374c0.033,0.44-0.457,1.653-0.646,1.598
	c-0.036-0.011-0.232-0.302-0.438-0.647c-0.203-0.345-0.392-0.629-0.416-0.632c-0.023-0.002-0.063,0.021-0.087,0.052
	c-0.101,0.13-0.569,0.377-0.905,0.474c-0.355,0.104-0.359,0.106-0.297,0.208c0.269,0.439,0.729,1.222,0.734,1.25
	c0.007,0.042-0.525,0.083-1.158,0.088c-0.271,0.002-0.494,0.023-0.497,0.047c-0.002,0.023,0.167,0.323,0.375,0.667
	c0.209,0.344,0.364,0.634,0.346,0.645c-0.02,0.012-0.323,0.027-0.678,0.035c-0.354,0.009-0.722,0.028-0.817,0.045l-0.174,0.03
	l0.067,0.11c0.037,0.061,0.218,0.357,0.402,0.659c0.184,0.303,0.336,0.562,0.338,0.575C11.708,10.129,11.576,10.176,11.414,10.22z
	 M13.96,10.057c-0.271,0.003-0.496,0.008-0.499,0.013c-0.004,0.005,0.162,0.289,0.369,0.633c0.206,0.343,0.363,0.638,0.352,0.655
	c-0.014,0.017-0.201,0.031-0.418,0.029c-0.218,0.001-0.584,0.021-0.816,0.045l-0.422,0.046l-0.343-0.572
	c-0.189-0.314-0.369-0.611-0.399-0.658c-0.05-0.078-0.023-0.092,0.26-0.134c0.173-0.025,0.553-0.05,0.841-0.053
	c0.29-0.004,0.531-0.014,0.537-0.021c0.006-0.008-0.172-0.315-0.396-0.685c-0.225-0.37-0.397-0.671-0.387-0.672
	c0.012,0,0.31-0.007,0.662-0.014c0.354-0.008,0.731-0.028,0.842-0.047l0.201-0.033L13.956,7.96
	c-0.213-0.347-0.392-0.657-0.396-0.689c-0.006-0.032,0.111-0.088,0.266-0.124c0.306-0.072,0.744-0.286,0.934-0.456
	c0.068-0.061,0.137-0.101,0.151-0.089c0.015,0.011,0.196,0.307,0.405,0.658c0.207,0.35,0.387,0.644,0.397,0.652
	c0.042,0.033,0.317-0.378,0.429-0.639c0.063-0.15,0.146-0.447,0.188-0.66c0.04-0.212,0.078-0.382,0.085-0.376
	c0.008,0.005,0.192,0.311,0.412,0.68l0.399,0.67L17.146,8c-0.043,0.227-0.129,0.53-0.189,0.675c-0.107,0.256-0.374,0.661-0.415,0.63
	c-0.011-0.009-0.188-0.303-0.397-0.652c-0.207-0.351-0.392-0.648-0.406-0.66c-0.016-0.012-0.137,0.059-0.271,0.157
	c-0.255,0.189-0.479,0.292-0.845,0.389c-0.123,0.032-0.229,0.068-0.238,0.079c-0.009,0.011,0.149,0.296,0.353,0.634
	c0.201,0.337,0.373,0.644,0.379,0.682C15.127,10.009,14.744,10.05,13.96,10.057z M16.963,10.952
	c-0.125,0.077-0.398,0.194-0.609,0.259l-0.385,0.117l-0.115-0.195c-0.063-0.107-0.244-0.409-0.399-0.67l-0.282-0.477l0.359-0.1
	c0.357-0.1,0.787-0.327,0.902-0.479c0.032-0.043,0.08-0.063,0.104-0.043s0.215,0.312,0.42,0.648
	C17.38,10.705,17.379,10.694,16.963,10.952z"/>
</svg>
