<?xml version="1.0" encoding="utf-8"?>
<!-- Generator: Adobe Illustrator 16.0.0, SVG Export Plug-In . SVG Version: 6.00 Build 0)  -->
<!DOCTYPE svg PUBLIC "-//W3C//DTD SVG 1.1//EN" "http://www.w3.org/Graphics/SVG/1.1/DTD/svg11.dtd">
<svg version="1.1" id="Capa_1" xmlns="http://www.w3.org/2000/svg" xmlns:xlink="http://www.w3.org/1999/xlink" x="0px" y="0px"
	 width="24px" height="24px" viewBox="0 0 24 24" enable-background="new 0 0 24 24" xml:space="preserve">
<circle fill="#FFFFFF" stroke="#FFFFFF" stroke-miterlimit="10" cx="12.001" cy="10.25" r="9"/>
<g id="Capa_1_1_" display="none">
	<circle display="inline" fill="#9A7D22" cx="12" cy="10.4" r="10"/>
</g>
<g id="Capa_3">
	<path fill="#EBC32E" d="M11.997,0.001L11.997,0.001c-5.66-0.085-10.315,4.434-10.4,10.093c0,0.044,0,0.089,0,0.133
		c0,3.126,1.311,5.527,3.563,7.753c2.972,2.929,5.813,5.599,5.813,5.599c0.311,0.3,0.736,0.45,1.167,0.412v-0.412l0,0V24
		c0.367-0.079,0.715-0.232,1.021-0.455c0,0,2.741-2.74,5.696-5.652c2.254-2.221,3.547-4.533,3.547-7.677
		C22.376,4.547,17.759-0.027,12.09,0C12.06,0,12.028,0,11.997,0.001z M11.997,19c-4.946,0.003-8.957-4.004-8.959-8.949
		c-0.003-4.945,4.003-8.956,8.948-8.959c4.944-0.002,8.956,4.003,8.958,8.949c0,0.003,0,0.007,0,0.011
		C20.939,14.995,16.936,19,11.991,19H11.997z"/>
</g>
<path fill="#EBC32E" d="M17.467,9.427c0.762-0.293,1.278-1.008,1.318-1.823l0,0l0,0c-0.002-0.023-0.005-0.046-0.011-0.068
	c0.001-0.018,0.001-0.037,0-0.054l-1.489-3.83c-0.048-0.114-0.16-0.188-0.284-0.186H7.467c-0.114,0-0.219,0.063-0.27,0.166
	l-1.979,3.82l0,0c-0.002,0.019-0.002,0.038,0,0.057c-0.003,0.019-0.003,0.039,0,0.058l0,0c0.021,0.821,0.526,1.551,1.287,1.861
	v6.735c0,0.167,0.136,0.304,0.304,0.304l0,0h10.355c0.168,0,0.304-0.137,0.304-0.304l0,0V9.427z M16.795,4.063l1.243,3.226h-3.613
	L14.06,4.063H16.795z M13.447,4.063l0.362,3.226h-3.59l0.767-3.226H13.447z M13.806,7.897c-0.179,0.675-0.925,1.162-1.82,1.162
	c-0.895,0-1.641-0.5-1.82-1.162H13.806z M7.652,4.063h2.702L9.588,7.289h-3.6L7.652,4.063z M5.829,7.897h3.647
	c-0.179,0.675-0.929,1.162-1.82,1.162S6.011,8.559,5.829,7.897z M16.876,12.163H7.112V9.616c0.18,0.033,0.361,0.05,0.544,0.051
	c0.856,0.023,1.667-0.381,2.165-1.077c0.497,0.697,1.309,1.102,2.165,1.077c0.856,0.024,1.668-0.38,2.165-1.077
	c0.498,0.696,1.31,1.1,2.165,1.077c0.183-0.001,0.364-0.018,0.544-0.051L16.876,12.163z M16.332,9.059
	c-0.891,0-1.641-0.5-1.82-1.162h3.627c-0.178,0.662-0.928,1.162-1.823,1.162H16.332z"/>
</svg>
